<svg width="512" height="122" viewBox="0 0 512 122" fill="none" xmlns="http://www.w3.org/2000/svg">
<path d="M-2.38419e-07 119.852V1.99204H51.626C60.258 1.99204 67.728 3.43071 74.036 6.30805C80.4547 9.18538 85.3793 13.28 88.81 18.592C92.2407 23.7934 93.956 29.9907 93.956 37.184C93.956 42.6067 92.794 47.4207 90.47 51.626C88.2567 55.8314 85.158 59.262 81.174 61.918C77.3007 64.574 72.8187 66.234 67.728 66.898L67.23 65.404C75.0873 65.404 81.0633 67.1194 85.158 70.55C89.2527 73.87 91.5767 79.016 92.13 85.988L95.118 119.852H69.388L67.23 89.972C66.898 85.4347 65.4593 82.1147 62.914 80.012C60.4793 77.7987 56.274 76.692 50.298 76.692H25.232V119.852H-2.38419e-07ZM25.232 55.61H48.804C54.8907 55.61 59.594 54.2267 62.914 51.46C66.3447 48.5827 68.06 44.5434 68.06 39.342C68.06 34.03 66.3447 30.046 62.914 27.39C59.4833 24.6234 54.5033 23.24 47.974 23.24H25.232V55.61ZM142.013 121.844C132.828 121.844 125.634 118.911 120.433 113.046C115.342 107.07 112.797 98.77 112.797 88.146V30.876H137.697V82.336C137.697 89.1974 138.748 94.2327 140.851 97.442C142.954 100.541 146.274 102.09 150.811 102.09C155.902 102.09 159.83 100.375 162.597 96.944C165.474 93.4027 166.913 88.1461 166.913 81.174V30.876H191.813V119.852H169.071L168.407 94.288L171.561 94.952C170.233 103.805 167.079 110.501 162.099 115.038C157.119 119.575 150.424 121.844 142.013 121.844ZM263.46 121.844C257.263 121.844 251.84 120.516 247.192 117.86C242.655 115.204 239.113 111.497 236.568 106.738L236.07 119.852H212.332V1.99204H237.232V43.492C239.556 39.3974 242.987 35.9667 247.524 33.2C252.061 30.3227 257.373 28.884 263.46 28.884C270.985 28.884 277.515 30.8207 283.048 34.694C288.581 38.4567 292.842 43.824 295.83 50.796C298.929 57.768 300.478 65.9574 300.478 75.364C300.478 84.7707 298.929 92.96 295.83 99.932C292.842 106.904 288.581 112.327 283.048 116.2C277.515 119.963 270.985 121.844 263.46 121.844ZM256.488 102.754C262.021 102.754 266.448 100.375 269.768 95.616C273.199 90.7467 274.914 83.996 274.914 75.364C274.914 66.732 273.254 60.0367 269.934 55.278C266.614 50.4087 262.187 47.974 256.654 47.974C252.559 47.974 249.018 49.0807 246.03 51.294C243.153 53.3967 240.939 56.4954 239.39 60.59C237.951 64.6847 237.232 69.6094 237.232 75.364C237.232 81.008 237.951 85.8774 239.39 89.972C240.939 94.0667 243.153 97.2207 246.03 99.4341C249.018 101.647 252.504 102.754 256.488 102.754ZM315.92 119.852V30.876H339.492L340.322 56.772L338.496 56.274C339.935 47.31 342.48 40.836 346.132 36.8521C349.784 32.868 354.819 30.876 361.238 30.876H369.372V51.46H361.238C356.59 51.46 352.772 52.0687 349.784 53.286C346.796 54.5034 344.527 56.44 342.978 59.096C341.539 61.752 340.82 65.3487 340.82 69.886V119.852H315.92ZM382.385 119.852V30.876H407.285V119.852H382.385ZM381.887 19.92V4.04119e-05H407.617V19.92H381.887ZM467.789 121.844C458.715 121.844 450.802 119.963 444.051 116.2C437.301 112.327 432.044 106.904 428.281 99.932C424.519 92.96 422.637 84.7707 422.637 75.364C422.637 65.9574 424.519 57.8234 428.281 50.962C432.044 43.99 437.301 38.5674 444.051 34.694C450.802 30.8207 458.715 28.884 467.789 28.884C475.647 28.884 482.674 30.2674 488.871 33.0341C495.179 35.8007 500.27 39.7847 504.143 44.986C508.017 50.1874 510.396 56.44 511.281 63.744L485.551 64.906C484.777 59.3727 482.785 55.2227 479.575 52.456C476.477 49.5787 472.548 48.14 467.789 48.14C461.592 48.14 456.778 50.5194 453.347 55.278C449.917 60.0367 448.201 66.732 448.201 75.364C448.201 83.996 449.917 90.7467 453.347 95.616C456.778 100.375 461.592 102.754 467.789 102.754C472.548 102.754 476.532 101.315 479.741 98.438C482.951 95.45 484.887 90.968 485.551 84.992L511.281 85.988C510.507 93.292 508.183 99.6554 504.309 105.078C500.547 110.39 495.511 114.54 489.203 117.528C483.006 120.405 475.868 121.844 467.789 121.844Z" fill="#1C1C1C"/>
</svg>
